<svg width="185" height="36" viewBox="0 0 185 36" fill="none" xmlns="http://www.w3.org/2000/svg">
<path fill-rule="evenodd" clip-rule="evenodd" d="M72.6643 30.8883L66.9409 23.2533L64.3259 25.925V30.7845C64.3259 30.8805 64.2473 30.9584 64.1506 30.9584H60.4033C60.3064 30.9584 60.228 30.8805 60.228 30.7845V5.30673C60.228 5.21073 60.3064 5.13281 60.4033 5.13281H64.1506C64.2473 5.13281 64.3259 5.21073 64.3259 5.30673V21.2787L72.5866 12.3137C72.6199 12.2777 72.6669 12.2572 72.716 12.2572H77.3134C77.4661 12.2572 77.5459 12.4372 77.4426 12.5486L69.8679 20.7365L77.649 30.6779C77.7384 30.7919 77.6563 30.9584 77.5105 30.9584H72.8049C72.7495 30.9584 72.6972 30.9325 72.6643 30.8883" fill="#F9FAFB"/>
<path fill-rule="evenodd" clip-rule="evenodd" d="M79.9746 30.7848V12.4314C79.9746 12.3354 80.0531 12.2575 80.1499 12.2575H83.8972C83.9941 12.2575 84.0725 12.3354 84.0725 12.4314V15.0064C85.4435 13.2686 87.6316 11.8996 90.021 11.834C90.1191 11.8316 90.1999 11.9116 90.1999 12.0092V15.6483C90.1999 15.7551 90.1044 15.8372 89.998 15.8194C89.6879 15.7678 89.3259 15.7422 88.912 15.7422C87.1948 15.7422 84.8922 16.904 84.0725 18.2201V30.7848C84.0725 30.8808 83.9941 30.9587 83.8972 30.9587H80.1499C80.0531 30.9587 79.9746 30.8808 79.9746 30.7848" fill="#F9FAFB"/>
<path fill-rule="evenodd" clip-rule="evenodd" d="M106.007 21.5895C106.007 18.2984 104.056 15.3945 100.543 15.3945C97.0696 15.3945 95.1182 18.2984 95.1182 21.5895C95.1182 24.9192 97.0696 27.8232 100.543 27.8232C104.056 27.8232 106.007 24.9192 106.007 21.5895M90.8643 21.5896C90.8643 16.2465 94.5717 11.7939 100.543 11.7939C106.592 11.7939 110.261 16.2465 110.261 21.5896C110.261 26.9715 106.592 31.4242 100.543 31.4242C94.5717 31.4242 90.8643 26.9715 90.8643 21.5896" fill="#F9FAFB"/>
<path fill-rule="evenodd" clip-rule="evenodd" d="M135.494 30.9587C135.397 30.9587 135.318 30.8808 135.318 30.7848V18.7622C135.318 16.749 134.421 15.3937 132.235 15.3937C130.401 15.3937 128.684 16.6714 127.864 17.8718V30.7848C127.864 30.8808 127.786 30.9587 127.689 30.9587H123.942C123.845 30.9587 123.766 30.8808 123.766 30.7848V18.7622C123.766 16.749 122.869 15.3937 120.644 15.3937C118.849 15.3937 117.171 16.6714 116.312 17.9105V30.7848C116.312 30.8808 116.233 30.9587 116.137 30.9587H112.389C112.292 30.9587 112.214 30.8808 112.214 30.7848V12.4314C112.214 12.3354 112.292 12.2575 112.389 12.2575H116.137C116.233 12.2575 116.312 12.3354 116.312 12.4314V14.8128C117.093 13.6514 119.59 11.793 122.439 11.793C125.249 11.793 126.967 13.1867 127.591 15.2389C128.684 13.5352 131.182 11.793 133.992 11.793C137.465 11.793 139.416 13.6514 139.416 17.4458V30.7848C139.416 30.8808 139.338 30.9587 139.241 30.9587H135.494Z" fill="#F9FAFB"/>
<path fill-rule="evenodd" clip-rule="evenodd" d="M142.365 30.7851V12.4317C142.365 12.3357 142.444 12.2578 142.54 12.2578H146.288C146.384 12.2578 146.463 12.3357 146.463 12.4317V30.7851C146.463 30.8811 146.384 30.959 146.288 30.959H142.54C142.444 30.959 142.365 30.8811 142.365 30.7851M141.857 7.45597C141.857 6.06241 143.028 4.93945 144.394 4.93945C145.799 4.93945 146.931 6.06241 146.931 7.45597C146.931 8.84989 145.799 9.97267 144.394 9.97267C143.028 9.97267 141.857 8.84989 141.857 7.45597" fill="#F9FAFB"/>
<path fill-rule="evenodd" clip-rule="evenodd" d="M162.309 30.9587C162.213 30.9587 162.134 30.8808 162.134 30.7848V19.2657C162.134 16.3617 160.651 15.3937 158.349 15.3937C156.241 15.3937 154.446 16.6326 153.509 17.9105V30.7848C153.509 30.8808 153.431 30.9587 153.334 30.9587H149.586C149.49 30.9587 149.411 30.8808 149.411 30.7848V12.4314C149.411 12.3354 149.49 12.2575 149.586 12.2575H153.334C153.431 12.2575 153.509 12.3354 153.509 12.4314V14.8128C154.758 13.3415 157.178 11.793 160.144 11.793C164.203 11.793 166.232 13.9611 166.232 17.7944V30.7848C166.232 30.8808 166.154 30.9587 166.057 30.9587H162.309Z" fill="#F9FAFB"/>
<path fill-rule="evenodd" clip-rule="evenodd" d="M31.1529 16.1986L15.7702 31.4594C14.7433 32.4782 14.7433 34.1301 15.7702 35.1487V35.1487C16.2835 35.6581 16.9565 35.9128 17.6294 35.9128V35.9128C18.3024 35.9128 18.9752 35.6581 19.4889 35.1487V35.1487L34.8716 19.8878C35.8983 18.8692 35.8983 17.2174 34.8716 16.1986V16.1986C34.3581 15.6894 33.6851 15.4346 33.0121 15.4346V15.4346C32.3392 15.4346 31.6662 15.6894 31.1529 16.1986" fill="url(#paint0_linear_466_971)"/>
<path fill-rule="evenodd" clip-rule="evenodd" d="M36.5621 0.173828C35.1099 0.173828 33.9326 1.34183 33.9326 2.78252V2.78252C33.9326 4.22322 35.1099 5.39122 36.5621 5.39122V5.39122H45.7654V27.0063L24.2221 5.63348C23.7288 5.14426 23.06 4.86948 22.3627 4.86948V4.86948H17.6295C16.1773 4.86948 15 6.03748 15 7.47818V7.47818C15 8.91887 16.1773 10.0869 17.6295 10.0869V10.0869H21.2735L46.5357 35.1488C47.0386 35.6479 47.7111 35.9131 48.3955 35.913V35.913C48.7342 35.913 49.076 35.8481 49.4012 35.7145V35.7145C50.3837 35.3105 51.0245 34.3596 51.0245 33.3043V33.3043V2.78252C51.0245 1.34183 49.8472 0.173828 48.395 0.173828V0.173828H36.5621Z" fill="url(#paint1_linear_466_971)"/>
<defs>
<linearGradient id="paint0_linear_466_971" x1="27.7398" y1="36.794" x2="41.2118" y2="23.2212" gradientUnits="userSpaceOnUse">
<stop stop-color="#B84FF8"/>
<stop offset="1" stop-color="#8227EE"/>
</linearGradient>
<linearGradient id="paint1_linear_466_971" x1="42.9445" y1="24.2219" x2="58.976" y2="8.06236" gradientUnits="userSpaceOnUse">
<stop stop-color="#B84FF8"/>
<stop offset="1" stop-color="#8227EE"/>
</linearGradient>
</defs>
</svg>
